<svg xmlns="http://www.w3.org/2000/svg" width="23" height="27" viewBox="0 0 23 27">
    <path fill="#FFF" d="M22.527 20.735c-.405.93-.885 1.785-1.441 2.572-.758 1.074-1.381 1.816-1.858 2.229-.741.675-1.538 1.022-2.389 1.042-.61 0-1.347-.173-2.205-.523-.861-.348-1.652-.519-2.376-.519-.758 0-1.571.17-2.442.52-.87.35-1.573.533-2.111.55-.815.035-1.63-.321-2.441-1.07-.518-.448-1.166-1.218-1.944-2.307-.833-1.16-1.518-2.512-2.054-4.048C.69 17.52.403 15.912.403 14.356c0-1.783.389-3.321 1.166-4.61.613-1.035 1.426-1.851 2.443-2.45 1.018-.601 2.119-.908 3.303-.927.65 0 1.501.198 2.556.59 1.054.392 1.732.591 2.027.591.223 0 .973-.234 2.249-.697 1.204-.43 2.22-.608 3.053-.538 2.26.181 3.955 1.063 5.083 2.653-2.019 1.214-3.017 2.912-2.997 5.092.017 1.698.64 3.111 1.859 4.232.553.521 1.17.923 1.856 1.209-.15.43-.307.84-.474 1.234zM17.35.532c0 1.33-.491 2.573-1.467 3.723-1.18 1.366-2.606 2.157-4.152 2.032-.02-.16-.03-.327-.03-.504 0-1.278.56-2.644 1.558-3.763.497-.565 1.13-1.037 1.896-1.412.765-.37 1.488-.574 2.168-.61.019.18.027.358.027.534z"/>
</svg>
