<svg xmlns="http://www.w3.org/2000/svg" width="24" height="26" viewBox="0 0 24 26">
    <path fill="#FFF" d="M12.64 12.164l4.176-4.175L3.332.411C2.438-.072 1.6-.14.867.388L12.64 12.164zm4.887 4.887l4.34-2.44c.847-.475 1.311-1.147 1.311-1.892 0-.744-.464-1.418-1.31-1.892L17.94 8.62l-4.423 4.422 4.011 4.01zM.141 1.415c-.09.278-.141.588-.141.929v20.76c0 .537.119 1 .333 1.369L11.764 13.04.141 1.415zm12.5 12.5L1.273 25.286c.218.083.452.127.7.127.44 0 .899-.13 1.366-.39l13.066-7.337-3.764-3.77z"/>
</svg>
