<svg xmlns="http://www.w3.org/2000/svg" width="32" height="32" viewBox="0 0 32 32">
    <g fill="#FFF" fill-rule="evenodd">
        <path d="M16 0C7.163 0 0 7.163 0 16s7.163 16 16 16 16-7.163 16-16S24.837 0 16 0zm-3.518 7.518c.91-.041 1.201-.051 3.519-.051h-.003c2.318 0 2.608.01 3.518.051.909.042 1.53.186 2.073.397.562.217 1.037.509 1.511.984.475.474.767.95.985 1.511.21.543.354 1.163.397 2.071.04.91.051 1.202.051 3.52 0 2.317-.01 2.607-.051 3.517-.043.908-.187 1.528-.397 2.071-.218.561-.51 1.037-.985 1.512-.474.474-.95.767-1.51.985-.543.21-1.164.354-2.072.396-.91.041-1.2.052-3.518.052-2.318 0-2.608-.01-3.519-.052-.908-.042-1.528-.185-2.071-.396-.56-.218-1.037-.51-1.511-.985-.475-.475-.766-.95-.984-1.512-.211-.543-.355-1.163-.397-2.071-.041-.91-.051-1.2-.051-3.518 0-2.317.01-2.608.051-3.519.04-.908.185-1.528.396-2.07.22-.562.51-1.038.985-1.512.475-.475.95-.766 1.512-.984.543-.211 1.163-.355 2.071-.397z"/>
        <path d="M15.235 9.004h.766c2.278 0 2.548.009 3.448.05.832.038 1.284.177 1.584.293.399.155.683.34.981.639.299.298.484.583.639.981.116.3.256.752.294 1.584.04.9.05 1.17.05 3.447 0 2.278-.01 2.548-.05 3.447-.039.832-.178 1.284-.294 1.584-.155.399-.34.682-.639.98-.299.3-.582.484-.98.639-.301.117-.753.256-1.585.294-.9.04-1.17.05-3.448.05-2.279 0-2.549-.01-3.448-.05-.832-.039-1.284-.178-1.585-.294-.398-.155-.683-.34-.981-.639-.299-.298-.484-.582-.639-.98-.117-.3-.256-.752-.294-1.584-.04-.9-.049-1.17-.049-3.449s.008-2.548.05-3.447c.037-.832.176-1.284.293-1.584.155-.399.34-.683.639-.982.298-.298.583-.483.981-.638.3-.118.753-.256 1.585-.295.787-.035 1.092-.046 2.682-.048v.002zm5.32 1.417c-.564 0-1.023.459-1.023 1.024s.459 1.024 1.024 1.024 1.024-.459 1.024-1.024-.459-1.024-1.024-1.024zm-8.936 5.58c0-2.42 1.962-4.383 4.382-4.383S20.382 13.58 20.382 16s-1.961 4.382-4.381 4.382S11.619 18.42 11.619 16z"/>
        <path fill-rule="nonzero" d="M16 13.156c1.572 0 2.845 1.273 2.845 2.844 0 1.57-1.273 2.845-2.844 2.845S13.156 17.57 13.156 16c0-1.57 1.274-2.844 2.845-2.844z"/>
    </g>
</svg>
