<svg xmlns="http://www.w3.org/2000/svg" width="61" height="48" viewBox="0 0 61 48">
    <path fill="#FFF" fill-rule="evenodd" d="M60.463 27.803l-.002-.127c-.022-1.034-.087-2.228-.408-3.25-.572-1.821-1.772-3.077-3.292-3.443-1.548-.375-2.774.316-3.358 1.894-.323.873-.388 2.005-.41 3.098l-.003.16c-.004.174-.004.174 0 .352l.002.142c.021 1.123.085 2.304.41 3.334.571 1.822 1.771 3.077 3.292 3.444.276.067.542.1.796.1 1.17 0 2.081-.698 2.562-1.994.323-.875.388-2.011.41-3.109l.001-.092c.006-.259.006-.259 0-.509zm-2.8-.418l-.002.06c-.012 1.235-.061 1.99-.15 2.308-.08.293-.206.487-.373.577-.123.066-.272.077-.454.033-.444-.106-.745-.471-.895-1.084-.085-.35-.134-1.082-.15-2.24-.001-.15-.002-.188-.003-.207.001-.012.002-.047.004-.205.015-1.14.064-1.842.148-2.146.081-.293.207-.487.373-.577.075-.04.158-.06.253-.06.062 0 .129.009.201.026.444.107.746.472.896 1.085.087.36.136 1.132.15 2.36l.001.07zm-1.403-8.851v-2.551c0-.28-.213-.453-.474-.383l-11.832 3.188c-.26.07-.473.357-.473.638v2.55c0 .281.213.454.473.384l3.81-1.027c.142-.038.237.038.237.191V37.94c0 .28.213.453.474.383l2.367-.638c.26-.07.473-.357.473-.637V20.632c0-.154.095-.281.237-.32l4.234-1.14c.26-.07.474-.357.474-.638zm-9.196-5.6v-.097c0-3.183-2.022-5.888-4.997-6.683l-6.059-1.619c-.261-.07-.476.102-.476.382v14.366c0 .28.215.566.476.636l2.38.637c.262.07.476-.102.476-.382v-3.923c0-.153.095-.229.238-.19l2.965.79c2.97.794 4.959-.796 4.997-3.917zm-3.428-1.08l-.001.093c-.038.977-.706 1.487-1.638 1.236l-2.802-.752c-.14-.038-.234-.164-.234-.316V9.082c0-.151.094-.227.234-.19l2.802.753c.96.259 1.64 1.174 1.64 2.209zm-8.104 9.894v19.977c0 .28.215.566.478.636l2.39.636c.263.07.478-.102.478-.381v-9.543c0-.153.095-.229.239-.19l.621.165c.191.05.359.222.43.445l2.059 7.767c.143.394.287.534.597.617l2.39.636c.359.096.597-.095.597-.426 0-.153-.023-.235-.12-.515l-2.034-7.48c-.095-.281-.12-.415-.12-.516 0-.153.096-.23.263-.287 1.697-.591 2.486-1.858 2.486-3.843 0-3.18-2.031-5.885-5.018-6.68l-5.258-1.4c-.263-.07-.478.102-.478.382zm3.273 4.168c0-.153.095-.23.236-.192l2.007.545c.969.263 1.653 1.192 1.653 2.243 0 1.05-.684 1.608-1.653 1.346l-2.007-.545c-.141-.039-.236-.167-.236-.32v-3.077zm-5.767 12.357V6.94c-.015-1.968-.106-3.537-.607-4.667-.76-1.716-2.11-2.709-4.457-2.084s-3.696 2.336-4.457 4.457c-.498 1.387-.59 2.99-.606 4.947-.002.267-.002 31.154-.001 31.378.012 2.01.098 3.61.607 4.758.76 1.715 2.11 2.709 4.457 2.084 2.348-.625 3.697-2.336 4.457-4.457.509-1.419.595-3.064.607-5.082zm-3.74.52c-.003 1.427-.03 3.023-.193 3.689-.194.79-.43 1.26-1.053 1.425-.623.165-.86-.177-1.053-.865-.155-.555-.187-2.023-.193-3.395V9.056c.005-1.386.036-2.895.193-3.538.193-.79.43-1.26 1.053-1.425.623-.165.86.177 1.053.865.156.56.188 2.05.193 3.432v30.404zm-8.259-5.817c0-3.174-2.029-5.873-5.012-6.666l-5.108-1.36c-.263-.07-.477.102-.477.382v14.837c0 .28.214.565.477.635l2.387.635c.262.07.477-.102.477-.381v-4.424c0-.153.095-.229.239-.19l2.005.533c3.007.8 5.012-.826 5.012-4zm-3.429-.893c0 1.06-.682 1.624-1.646 1.358l-1.859-.51c-.14-.04-.235-.169-.235-.324v-3.104c0-.156.094-.233.235-.194l1.859.51c.964.266 1.646 1.204 1.646 2.264zm2.961-6.453V6.154c0-.28-.215-.565-.477-.635l-2.53-.672c-.264-.07-.479.101-.479.38v9.982c0 .152-.095.228-.239.19l-2.68-.712c-.143-.038-.238-.165-.238-.317V8.935c0-.28-.215-.565-.478-.634l-2.53-.673c-.264-.07-.478.102-.478.38v14.93c0 .28.214.565.477.635l2.412.64c.262.07.597-.07.597-.348v-5.132c0-.152.095-.228.238-.19l2.68.712c.144.038.24.165.24.317v5.132c0 .279.214.564.477.634l2.53.672c.263.07.478-.101.478-.38zM3.307 20.077c0-.786.41-1.278 1.253-1.505.363-.097.683-.057.903.112.218.168.332.449.332.813v.098c0 .16.064.3.175.386.103.08.237.104.369.068l1.844-.496c.258-.07.46-.35.46-.638v-.098c0-1.245-.412-2.248-1.16-2.825-.754-.581-1.793-.716-3.006-.39-2.436.655-4.203 2.803-4.203 5.107 0 2.191 1.152 3.384 3.333 3.45 2.243.073 2.243.484 2.243 1.229 0 .804-.545 1.431-1.458 1.677-.452.121-.843.08-1.1-.118-.234-.181-.358-.487-.358-.884v-.391c0-.16-.064-.301-.175-.387-.102-.079-.237-.103-.368-.068l-1.93.52c-.259.069-.461.35-.461.638v.39c0 1.254.418 2.238 1.21 2.847.534.412 1.213.622 1.978.622.408 0 .84-.06 1.287-.18 2.637-.71 4.408-2.956 4.408-5.592 0-2.222-1.124-3.335-3.437-3.404-1.986-.052-2.139-.44-2.139-.981zM1.091 35.995v.558c0 .07.031.134.087.176.042.033.096.05.154.05.026 0 .053-.003.08-.01l2.86-.753c.14-.037.247-.163.247-.291v-.559c0-.07-.031-.134-.086-.176-.063-.048-.148-.062-.234-.04l-.752.199V32.91l.753-.199c.141-.037.248-.162.248-.291v-.558c0-.07-.032-.135-.087-.176-.063-.049-.148-.063-.234-.04l-2.716.716c-.142.037-.249.162-.249.29v.559c0 .07.032.134.087.176.062.048.147.062.234.04l.68-.18v2.239l-.824.216c-.141.038-.248.163-.248.292zm3.896-4.398v3.865c0 .07.032.135.087.177.042.032.094.05.152.05.024 0 .05-.004.075-.01l.684-.18c.138-.036.242-.16.242-.288v-1.668l.792 1.47c.023.044.114.185.348.124l.807-.212c.138-.036.242-.16.242-.288v-3.865c0-.07-.032-.135-.087-.178-.061-.046-.144-.06-.228-.039l-.683.18c-.138.036-.242.16-.242.288v1.81l-.796-1.597c-.043-.099-.154-.189-.338-.141l-.813.213c-.138.037-.242.16-.242.289z"/>
</svg>
